<svg width="19" height="19" viewBox="0 0 19 19" fill="none" xmlns="http://www.w3.org/2000/svg">
<path d="M9.49996 14.6459C12.3419 14.6459 14.6458 12.342 14.6458 9.50008C14.6458 6.65812 12.3419 4.35425 9.49996 4.35425C6.65799 4.35425 4.35413 6.65812 4.35413 9.50008C4.35413 12.342 6.65799 14.6459 9.49996 14.6459Z" stroke="#201F23" stroke-width="1.3" stroke-linecap="round" stroke-linejoin="round"/>
<path d="M15.1525 15.1524L15.0496 15.0495M15.0496 3.95033L15.1525 3.84742L15.0496 3.95033ZM3.84754 15.1524L3.95046 15.0495L3.84754 15.1524ZM9.50004 1.64659V1.58325V1.64659ZM9.50004 17.4166V17.3533V17.4166ZM1.64671 9.49992H1.58337H1.64671ZM17.4167 9.49992H17.3534H17.4167ZM3.95046 3.95033L3.84754 3.84742L3.95046 3.95033Z" stroke="#201F23" stroke-width="2" stroke-linecap="round" stroke-linejoin="round"/>
</svg>
