<svg width="18" height="17" viewBox="0 0 18 17" fill="none"
                                xmlns="http://www.w3.org/2000/svg">
                                <path
                                    d="M9.00008 0.166626C4.40841 0.166626 0.666748 3.90829 0.666748 8.49996C0.666748 13.0916 4.40841 16.8333 9.00008 16.8333C13.5917 16.8333 17.3334 13.0916 17.3334 8.49996C17.3334 3.90829 13.5917 0.166626 9.00008 0.166626ZM8.37508 5.16663C8.37508 4.82496 8.65842 4.54163 9.00008 4.54163C9.34175 4.54163 9.62508 4.82496 9.62508 5.16663V9.33329C9.62508 9.67496 9.34175 9.95829 9.00008 9.95829C8.65842 9.95829 8.37508 9.67496 8.37508 9.33329V5.16663ZM9.76675 12.15C9.72508 12.2583 9.66675 12.3416 9.59175 12.425C9.50842 12.5 9.41675 12.5583 9.31675 12.6C9.21675 12.6416 9.10841 12.6666 9.00008 12.6666C8.89175 12.6666 8.78341 12.6416 8.68342 12.6C8.58342 12.5583 8.49175 12.5 8.40841 12.425C8.33342 12.3416 8.27508 12.2583 8.23342 12.15C8.19175 12.05 8.16675 11.9416 8.16675 11.8333C8.16675 11.725 8.19175 11.6166 8.23342 11.5166C8.27508 11.4166 8.33342 11.325 8.40841 11.2416C8.49175 11.1666 8.58342 11.1083 8.68342 11.0666C8.88342 10.9833 9.11675 10.9833 9.31675 11.0666C9.41675 11.1083 9.50842 11.1666 9.59175 11.2416C9.66675 11.325 9.72508 11.4166 9.76675 11.5166C9.80842 11.6166 9.83342 11.725 9.83342 11.8333C9.83342 11.9416 9.80842 12.05 9.76675 12.15Z"
                                    fill="white" />
                            </svg>