<svg width="16" height="22" viewBox="0 0 16 22" fill="none" xmlns="http://www.w3.org/2000/svg">
    <path d="M8 0C3.58872 0 0 3.52945 0 7.86754V14.1327C0 18.4708 3.58872 22 8 22C12.411 22 16 18.4815 16 14.1567V7.86754C16 3.52945 12.411 0 8 0ZM14.4953 14.1567C14.4953 17.6782 11.5817 20.5431 8 20.5431C4.41856 20.5431 1.50473 17.6673 1.50473 14.1325V7.86754C1.50473 4.33271 4.41856 1.45694 8 1.45694C11.5817 1.45694 14.4953 4.33271 14.4953 7.86754V14.1567Z" fill="#1C1B1F" />
    <path d="M8.04788 6.02209C7.62985 6.02209 7.29102 6.34823 7.29102 6.75059V9.30027C7.29102 9.70263 7.62985 10.0288 8.04788 10.0288C8.46591 10.0288 8.80475 9.70263 8.80475 9.30027V6.75059C8.80475 6.34823 8.46591 6.02209 8.04788 6.02209Z" fill="#1C1B1F" />
</svg>