<svg width="14" height="13" viewBox="0 0 14 13" fill="none" xmlns="http://www.w3.org/2000/svg">
    <path d="M7.00022 12.6667C3.53355 12.6667 0.720215 9.84667 0.720215 6.38667C0.720215 5.14 1.08688 3.93334 1.78022 2.89334C1.93355 2.66667 2.24688 2.6 2.47355 2.75334C2.70021 2.90667 2.76688 3.22 2.61355 3.44667C2.03355 4.31334 1.72688 5.33334 1.72688 6.38C1.72688 9.29334 4.09355 11.66 7.00688 11.66C9.92022 11.66 12.2869 9.29334 12.2869 6.38C12.2869 3.46667 9.91355 1.1 7.00022 1.1C6.38688 1.1 5.78688 1.18667 5.22021 1.36C4.95355 1.44 4.67355 1.29334 4.59355 1.02667C4.51355 0.760005 4.66022 0.480005 4.92688 0.400005C5.59355 0.200005 6.28688 0.093338 7.00022 0.093338C10.4669 0.093338 13.2802 2.91334 13.2802 6.37334C13.2802 9.83334 10.4669 12.6667 7.00022 12.6667Z" fill="#F88C3D" />
</svg>